<?xml version="1.0" encoding="UTF-8"?>
<svg id="layer" xmlns="http://www.w3.org/2000/svg" viewBox="0 0 61 94.17">
  <defs>
    <style>
      .cls-1 {
        fill: none;
        stroke: #012f4e;
        stroke-miterlimit: 10;
      }
    </style>
  </defs>
  <g id="_サンクスページ" data-name="サンクスページ">
    <g>
      <path class="cls-1" d="M24.42,34.43c5.3,4.22,11.72,1.89,10.21-1.89-7.59-2.83-10.62-12.34-7.31-15.92,3.31-3.58,10.22.06,6.53-2.79-3.69-2.85-10.1-.52-12.61,3.74-2.5,4.26-2.12,12.64,3.19,16.86Z"/>
      <path class="cls-1" d="M40.7,29.63c6.07-2.9,5.56-12.77,1.64-14.7-3.91-1.93-6.31-.08-3.77,3.46,3.35,4.23-3.28,9.43-6.39,8.19,0,0,2.44,5.95,8.51,3.05Z"/>
      <path class="cls-1" d="M35.87,11.5c5.05-.72,8.07.9,10.15,4.33,2.39-3.8-.52-11.82-8.57-14.76-8.05-2.94-18.56,6.18-16.23,12.6,1.37-1.61,8.1-5.23,14.66-2.17Z"/>
      <path class="cls-1" d="M7.48,43.93c1.97,1.4,9.32,3.74,15.64,5.77,6.32,2.03,12.73-2.25,12.46-9.13-19.18-1.28-19.14-15.4-18.13-19.53-8.27-.07-10.94,7.39-10.38,12.57.6,5.51-1.67,8.85.4,10.33Z"/>
      <path class="cls-1" d="M9.58,20.73c3.84-1.74,6.36-1.12,6.36-1.12,0,0,.96-2.93,2.27-4.32-.35-.57-.36-2.52-.36-2.52,0,0,.04-2.18.44-3.79-3.28-1.53-10.33,1.37-10.72,2.01-.4.63-.93,8.79,2.01,9.74Z"/>
      <path class="cls-1" d="M59.26,23.45c-2-9.75-10.27-9.82-10.27-9.82,0,0-.1,2.41-1.36,3.57,3.36,6.18-2.4,15.82-6.69,16.07,12.33,9.35,18.36-2.01,19.27-3.74.91-1.73-.59-3.56-.95-6.08Z"/>
      <path class="cls-1" d="M51.84,39.39c-2.77,1.1-9.34-.98-12.69-3.91-.22,1.57-2.35,3.65-3.15,3.61,2.61,1.94,4.06,7.98-2.23,12.45,1.51,2.48,10.01,2.93,15.51,1.03.89-.31,3.34-5.03,4.36-7.87,1.35-3.76,2.53-7.02-1.79-5.31Z"/>
      <path class="cls-1" d="M31.22,17.25c-3.52,1.09-2.95,6.75.99,7.23,5.66-.57,4.52-5.88,3.11-6.06-1.42-.18.24,2.98-1.55,3.03-2.13.06-3.05-1.45-1.97-2.59.88-.92,1.09-2.05-.58-1.6Z"/>
      <path class="cls-1" d="M44.81,66.92c-8.97-3.76-15.28-1.91-19.54.86.61-1.29,1.17-2.54,1.67-3.72,2.33-5.44,3.53-9.37,3.55-9.43l-4.27-1.37-.02.06c-.22.71-2.39,7.47-6.28,15.15-1.3,2.57-2.81,5.22-4.48,7.8,2.02-5.6,4.34-11.49-2.26-17.93-1,.61-1.09,2.72-1.09,2.72,0,0-3.67-9.43-6.28-9.22-2.61.22-7.18,10.2-2.63,16-2.42-.59-3.51,2.13-2,2.93,1.44.76,10.42,7.25,11.06,10.03-2.6,3.32-5.52,6.24-8.67,8.29-1.09.71-1.5,2.23-.9,3.4.6,1.17,1.96,1.54,3.06.83,4.17-2.71,7.75-6.51,10.82-10.63,1.64-2.21,3.13-4.51,4.47-6.81,11.28,6.7,19.18,3,20.01,1.23.89-1.91-3.22-.79-3.22-.79,0,0,10.72-7.2,6.99-9.39Z"/>
    </g>
  </g>
</svg>